<svg width="100" height="89" viewBox="0 0 100 89" fill="none" xmlns="http://www.w3.org/2000/svg">
<g clip-path="url(#clip0_41_265)">
<path d="M81.1025 27.8791C81.9358 27.8791 82.1342 27.4212 81.5466 26.8611L53.7468 0.4196C53.1577 -0.140518 52.1947 -0.140518 51.6055 0.4196L23.8149 26.8611C23.2258 27.4212 23.4257 27.8791 24.2575 27.8791H30.6721C31.5054 27.8791 32.6684 27.4212 33.2575 26.8611L51.6086 9.40589C52.1977 8.84578 53.1607 8.84578 53.7499 9.40589L72.1025 26.8611C72.6916 27.4212 73.8546 27.8791 74.6879 27.8791H81.1025Z" fill="white"/>
<path d="M53.8751 16.3012C53.286 15.7411 52.3229 15.7411 51.7338 16.3012L41.5235 26.0155C40.9344 26.5756 41.1343 27.035 41.9676 27.035H63.6443C64.4776 27.035 64.6761 26.5771 64.0885 26.017L53.8766 16.3027L53.8751 16.3012Z" fill="white"/>
<path d="M24.2575 60.3721C23.4257 60.3721 23.2258 60.8299 23.8149 61.39L51.6132 87.8315C52.2023 88.3917 53.1653 88.3917 53.7544 87.8315L81.5466 61.39C82.1357 60.8299 81.9358 60.3721 81.1025 60.3721H74.6879C73.8546 60.3721 72.6916 60.8299 72.1025 61.39L53.7514 78.8453C53.1623 79.4054 52.1992 79.4054 51.6101 78.8453L33.2575 61.39C32.6684 60.8299 31.5054 60.3721 30.6721 60.3721H24.2575V60.3721Z" fill="white"/>
<path d="M51.482 71.9498C52.0711 72.5099 53.0342 72.5099 53.6233 71.9498L63.8366 62.2355C64.4257 61.6754 64.2258 61.2175 63.3925 61.2175H41.7128C40.8795 61.2175 40.6795 61.6754 41.2686 62.2355L51.4805 71.9498H51.482Z" fill="white"/>
<path d="M19.3385 56.213C19.3385 56.5686 19.6437 56.8601 20.0177 56.8601H23.6989C24.0697 56.8601 24.3735 56.5686 24.3735 56.213L24.3979 36.9508C24.3979 36.5982 24.1613 36.4853 23.8729 36.7111L19.8681 40.4931C19.5781 40.7159 19.3385 41.1875 19.34 41.5431V56.2115L19.3385 56.213Z" fill="white"/>
<path d="M24.3964 32.6516C24.3964 32.3006 24.0927 32.0076 23.7188 32.0076H20.0391C19.6667 32.0076 19.3615 32.3006 19.3599 32.6516L19.337 37.2012C19.337 37.5568 19.5751 37.6667 19.8651 37.4409L23.8714 33.662C24.3308 33.1705 24.3964 32.9645 24.3964 32.6104V32.6516V32.6516Z" fill="white"/>
<path d="M17.7833 29.2756C17.7833 28.9215 17.5193 28.4805 17.2019 28.2943L11.9303 23.1281C11.6129 22.9419 11.0986 22.9495 10.7887 23.1464L0.573853 33.0835C0.260981 33.2804 0.00457861 33.7306 0 34.0862L0.0442599 38.7198C0.0442599 39.0754 0.293031 39.2112 0.60743 39.0174L4.73276 35.1485C5.04869 34.9531 5.30051 35.0874 5.30051 35.4415L5.28372 56.2009C5.28372 56.555 5.58591 56.8496 5.96136 56.8511H12.5393C12.9132 56.8587 13.4291 56.6496 13.687 56.3963L17.3102 52.9593C17.5712 52.7029 17.7849 52.2038 17.7849 51.8482V29.2756H17.7833ZM9.90202 48.1395L9.89286 31.0964C13.0658 31.3131 13.1711 33.4162 13.1711 33.6711L13.1818 50.7188C10.0043 50.5021 9.90354 48.3944 9.90202 48.1395Z" fill="white"/>
<path d="M36.9891 35.9343L32.9156 32.0623C32.5905 31.8898 32.0716 31.9143 31.7649 32.1157L26.3117 37.3689C25.9958 37.6589 25.7623 38.0252 25.7669 38.3777L25.8493 43.2387C25.8554 43.5912 26.1347 43.7545 26.4689 43.5974L30.0067 40.2428C30.2783 39.9772 30.6156 39.6658 30.6172 39.3148V38.9424C30.6156 38.9165 30.6248 38.9012 30.6263 38.8768L30.6172 38.0496C31.9358 38.4037 32.4227 39.9894 32.5036 40.3069V40.928L26.1851 46.9932C25.9195 47.2419 25.5715 47.6189 25.5715 47.9012V50.9796C25.5761 51.3322 25.9287 51.8282 26.1194 52.0067L31.0918 56.7029C31.3879 56.915 31.8961 56.9394 32.2212 56.7578L36.9647 52.3105C37.2348 52.0403 37.5507 51.6923 37.5522 51.3367L37.5782 36.8897C37.5782 36.5356 37.2928 36.2365 36.986 35.9343M30.6156 48.4629V47.0878L32.4456 45.3662L32.5036 50.7186C31.1849 50.36 30.7011 48.7758 30.6172 48.4629" fill="white"/>
<path d="M57.7608 35.3681L54.4123 32.1081C54.0842 31.9387 53.5683 31.9677 53.2677 32.1753L50.783 34.5989C50.4823 34.808 49.9634 34.8446 49.6277 34.6859L47.2071 32.4103C46.8759 32.2516 46.3494 32.2852 46.0441 32.4866L44.2112 34.4188C43.9074 34.6187 43.4343 34.5852 43.1627 34.341L42.8742 34.0815C42.6056 33.8404 42.134 33.8037 41.8272 34.0067L39.6875 35.4185C39.3853 35.6199 39.135 36.0778 39.135 36.4303V56.1901C39.135 56.5427 39.4418 56.8418 39.8142 56.8494L43.5488 56.8464C43.9227 56.8525 44.2249 56.5686 44.2218 56.213L44.199 40.2596C44.199 40.2596 44.2066 40.2596 44.2127 40.2596L44.2051 38.0451C45.5237 38.3991 46.009 39.9849 46.096 40.3023V56.3321C46.1556 56.6251 46.4196 56.851 46.7462 56.8464L50.5922 56.8494C50.9707 56.8418 51.2714 56.5442 51.2714 56.1901L51.2409 38.0451C52.561 38.3991 53.0479 39.9849 53.1288 40.3023V56.3305C53.1898 56.6251 53.4523 56.851 53.7835 56.8449L57.6616 56.8479C58.0355 56.8403 58.3392 56.5427 58.3392 56.1886L58.3545 36.3174C58.356 35.9633 58.0599 35.6306 57.7608 35.365" fill="white"/>
<path d="M85.5133 34.8569L82.5646 32.0594C82.2258 31.9022 81.7008 31.9373 81.3879 32.1326L78.9964 34.4448C78.6285 34.8294 77.6854 34.8584 77.4152 34.6158L76.6552 33.9412C76.385 33.6939 75.9073 33.6588 75.599 33.8557L74.3033 35.0401C73.9904 35.2415 73.7325 35.6902 73.7386 36.0489L73.7126 56.2192C73.7126 56.5733 74.0164 56.8633 74.3918 56.8633H78.2653C78.6377 56.8633 78.9429 56.5718 78.9429 56.2192L78.9597 38.0467C80.2799 38.4008 80.7637 39.9865 80.8476 40.3039V56.4481C80.9438 56.6893 81.188 56.8617 81.4764 56.8617H85.3515C85.7224 56.8617 86.0306 56.5718 86.0306 56.2177L86.0688 35.8428C86.0688 35.4903 85.7849 35.0919 85.5148 34.8539" fill="white"/>
<path d="M71.5637 36.174L67.3926 32.0837C67.0675 31.9098 66.5349 31.9067 66.2098 32.0746L60.427 37.6895C60.1554 37.8818 59.8318 38.2908 59.8349 38.6464L59.8944 51.0026C59.8944 51.3551 60.1355 51.8252 60.4286 52.0496L65.1873 56.6755C65.4788 56.8968 65.9839 56.9365 66.3106 56.7594L71.5485 51.7245C71.7957 51.4833 72.1422 51.1155 72.1422 50.6806L72.1559 37.0546C72.1559 36.7845 71.8537 36.4579 71.5683 36.1725M67.0843 50.7172C65.0453 50.4928 64.9278 48.1715 64.9217 48.0311V38.0466C66.9607 38.2664 67.0752 40.5893 67.0843 40.7328V50.7172Z" fill="white"/>
<path d="M99.4033 31.5726L90.4369 23.0228C90.127 22.8244 89.7073 22.9083 89.5059 23.2059L86.6778 25.7806C86.4748 26.0783 86.5542 26.4964 86.8564 26.7055C86.8564 26.7055 92.4911 32.0549 92.6743 32.1663C93.706 32.8454 93.0451 33.4056 92.7979 33.6879L88.2681 38.0025C88.0377 38.2253 87.6927 38.6374 87.6927 38.9899L87.6683 51.4041C87.6683 51.7567 87.9064 52.2359 88.1903 52.4602L92.6682 56.6497C92.9536 56.874 93.4618 56.932 93.7945 56.7718L99.3255 51.5674C99.591 51.3034 99.9344 50.9874 99.936 50.6334L100 32.5234C100.005 32.1693 99.6765 31.8763 99.4033 31.5741M95.0506 50.7204C93.0116 50.496 92.894 48.1747 92.8895 48.0342V37.9247C94.927 38.1444 95.0429 40.4673 95.0506 40.6077V50.7219V50.7204Z" fill="white"/>
</g>
<defs>
<clipPath id="clip0_41_265">
<rect width="100" height="88.2513" fill="white"/>
</clipPath>
</defs>
</svg>
